<svg width="1253" height="132" xmlns="http://www.w3.org/2000/svg" version="1.1">
 <!-- Generator: Adobe Illustrator 28.7.1, SVG Export Plug-In . SVG Version: 1.2.0 Build 142)  -->

 <g>
  <title>Layer 1</title>
  <g id="svg_1">
   <g id="Layer_1">
    <g id="svg_2">
     <path stroke="#000" fill="#fff" id="svg_3" d="m1123.69,129.13l0,-128.16l26.49,0l37.41,97.55l1.08,0l37.59,-97.55l26.49,0l0,128.16l-19.33,0l0,-72.49l1.07,-22.73l-1.07,0l-37.42,95.23l-15.57,0l-37.41,-95.23l-1.07,0l1.07,22.73l0,72.5l-19.33,0l0,-0.01z"/>
     <path stroke="#000" fill="#fff" id="svg_4" d="m1034.14,129.13l0,-128.16l19.69,0l0,109.55l55.13,0l0,18.62l-74.82,0l0,-0.01z"/>
     <path stroke="#000" fill="#fff" id="svg_5" d="m941.02,129.13l0,-128.16l19.33,0l0,75.54l38.66,-38.66l23.98,0l0,1.07l-35.26,34.9l36.51,54.24l0,1.07l-22.91,0l-27.21,-41.89l-13.78,13.6l0,28.28l-19.33,0l0.01,0.01z"/>
     <path stroke="#000" fill="#fff" id="svg_6" d="m881.84,132c-9.43,0 -17.72,-2.15 -24.88,-6.44c-7.16,-4.3 -12.77,-10.08 -16.83,-17.36c-4.06,-7.4 -6.09,-15.63 -6.09,-24.7s2.03,-17.24 6.09,-24.52c4.06,-7.4 9.67,-13.25 16.83,-17.54c7.16,-4.3 15.45,-6.44 24.88,-6.44s17.54,2.21 24.7,6.62c7.16,4.3 12.77,10.08 16.83,17.36c4.06,7.28 6.09,15.45 6.09,24.52s-2.03,17.3 -6.09,24.7c-4.06,7.28 -9.67,13.07 -16.83,17.36s-15.39,6.44 -24.7,6.44zm0,-17.72c5.01,0 9.67,-1.19 13.96,-3.58c4.3,-2.51 7.76,-6.03 10.38,-10.56c2.74,-4.65 4.12,-10.2 4.12,-16.65s-1.37,-11.93 -4.12,-16.47c-2.63,-4.65 -6.09,-8.17 -10.38,-10.56c-4.3,-2.51 -8.95,-3.76 -13.96,-3.76s-9.73,1.25 -14.14,3.76c-4.3,2.39 -7.82,5.91 -10.56,10.56c-2.63,4.53 -3.94,10.02 -3.94,16.47s1.31,11.99 3.94,16.65c2.74,4.53 6.32,8.06 10.74,10.56c4.41,2.39 9.07,3.58 13.96,3.58z"/>
     <path stroke="#000" fill="#fff" id="svg_7" d="m778.84,132c-9.43,0 -17.72,-2.15 -24.88,-6.44c-7.16,-4.3 -12.77,-10.08 -16.83,-17.36c-4.06,-7.4 -6.09,-15.63 -6.09,-24.7s2.03,-17.24 6.09,-24.52c4.06,-7.4 9.67,-13.25 16.83,-17.54c7.16,-4.3 15.45,-6.44 24.88,-6.44s17.54,2.21 24.7,6.62c7.16,4.3 12.77,10.08 16.83,17.36c4.06,7.28 6.09,15.45 6.09,24.52s-2.03,17.3 -6.09,24.7c-4.06,7.28 -9.67,13.07 -16.83,17.36c-7.16,4.3 -15.39,6.44 -24.7,6.44zm0,-17.72c5.01,0 9.67,-1.19 13.96,-3.58c4.3,-2.51 7.76,-6.03 10.38,-10.56c2.74,-4.65 4.12,-10.2 4.12,-16.65s-1.37,-11.93 -4.12,-16.47c-2.63,-4.65 -6.09,-8.17 -10.38,-10.56c-4.3,-2.51 -8.95,-3.76 -13.96,-3.76s-9.73,1.25 -14.14,3.76c-4.3,2.39 -7.82,5.91 -10.56,10.56c-2.63,4.53 -3.94,10.02 -3.94,16.47s1.31,11.99 3.94,16.65c2.74,4.53 6.32,8.06 10.74,10.56c4.41,2.39 9.07,3.58 13.96,3.58z"/>
     <path stroke="#000" fill="#fff" id="svg_8" d="m679.63,132c-4.65,0 -8.89,-0.72 -12.71,-2.15c-3.82,-1.43 -7.16,-3.28 -10.02,-5.55c-2.74,-2.39 -4.95,-4.83 -6.62,-7.34l-1.07,0l0,12.17l-18.26,0l0,-128.16l19.33,0l0,36.52l-1.07,12.71l1.07,0c1.67,-2.63 3.88,-5.07 6.62,-7.34c2.86,-2.39 6.21,-4.3 10.02,-5.73c3.82,-1.43 8.06,-2.15 12.71,-2.15c8.35,0 15.81,2.09 22.38,6.26c6.56,4.18 11.75,9.9 15.57,17.18c3.94,7.28 5.91,15.63 5.91,25.06s-1.97,17.78 -5.91,25.06c-3.82,7.28 -9.01,13.01 -15.57,17.18c-6.56,4.18 -14.02,6.26 -22.38,6.26l0,0.02zm-2.86,-17.72c4.77,0 9.25,-1.25 13.42,-3.76c4.3,-2.51 7.7,-6.09 10.2,-10.74c2.62,-4.65 3.94,-10.08 3.94,-16.29s-1.31,-11.75 -3.94,-16.29c-2.51,-4.65 -5.91,-8.23 -10.2,-10.74c-4.18,-2.51 -8.65,-3.76 -13.42,-3.76s-9.25,1.25 -13.42,3.76s-7.58,6.09 -10.2,10.74c-2.63,4.53 -3.94,9.96 -3.94,16.29s1.31,11.81 3.94,16.47c2.62,4.54 6.03,8.06 10.2,10.56c4.18,2.51 8.65,3.76 13.42,3.76z"/>
     <path stroke="#000" fill="#fff" id="svg_9" d="m575.06,132c-8.95,0 -16.94,-2.09 -23.99,-6.26c-7.04,-4.18 -12.59,-9.9 -16.65,-17.18c-3.94,-7.28 -5.91,-15.57 -5.91,-24.88c0,-8.71 1.91,-16.77 5.73,-24.17c3.82,-7.4 9.13,-13.31 15.93,-17.72c6.92,-4.53 14.86,-6.8 23.81,-6.8c9.43,0 17.42,2.03 23.99,6.09c6.68,4.06 11.75,9.61 15.21,16.65c3.46,7.04 5.19,14.98 5.19,23.81c0,1.31 -0.06,2.51 -0.18,3.58c0,1.07 -0.06,1.91 -0.18,2.51l-70.53,0c0.48,5.01 1.73,9.37 3.76,13.07c2.62,4.65 6.09,8.17 10.38,10.56c4.3,2.39 8.95,3.58 13.96,3.58c6.09,0 11.16,-1.37 15.21,-4.12c4.18,-2.86 7.46,-6.38 9.85,-10.56l15.93,7.7c-3.94,7.16 -9.31,13.01 -16.11,17.54c-6.8,4.42 -15.28,6.62 -25.42,6.62l0.02,-0.02zm-26.49,-58.89l50.66,0c-0.12,-2.27 -0.72,-4.65 -1.79,-7.16c-1.07,-2.63 -2.62,-5.01 -4.65,-7.16s-4.59,-3.88 -7.7,-5.19c-3.1,-1.43 -6.74,-2.15 -10.92,-2.15c-5.25,0 -9.91,1.37 -13.96,4.12c-4.06,2.63 -7.22,6.32 -9.49,11.1c-0.95,2.03 -1.67,4.18 -2.15,6.44z"/>
     <path stroke="#000" fill="#fff" id="svg_10" d="m466.03,37.85l15.93,0l0,-25.78l19.33,0l0,25.78l22.38,0l0,16.83l-22.38,0l0,43.85c0,4.53 0.9,7.99 2.68,10.38c1.91,2.39 5.07,3.58 9.49,3.58c2.15,0 4.06,-0.3 5.73,-0.89c1.67,-0.72 3.34,-1.55 5.01,-2.51l0,18.8c-2.03,0.83 -4.18,1.49 -6.44,1.97c-2.27,0.48 -4.95,0.72 -8.05,0.72c-8.47,0 -15.22,-2.45 -20.23,-7.34c-5.01,-5.01 -7.52,-11.87 -7.52,-20.58l0,-47.97l-15.93,0l0,-16.83l0,-0.01z"/>
     <path stroke="#000" fill="#fff" id="svg_11" d="m414.87,132c-9.43,0 -17.72,-2.15 -24.88,-6.44s-12.77,-10.08 -16.83,-17.36c-4.06,-7.4 -6.09,-15.63 -6.09,-24.7s2.03,-17.24 6.09,-24.52c4.06,-7.4 9.67,-13.25 16.83,-17.54c7.16,-4.3 15.45,-6.44 24.88,-6.44s17.54,2.21 24.7,6.62c7.16,4.3 12.77,10.08 16.83,17.36c4.06,7.28 6.09,15.45 6.09,24.52s-2.03,17.3 -6.09,24.7c-4.06,7.28 -9.67,13.07 -16.83,17.36s-15.39,6.44 -24.7,6.44zm0,-17.72c5.01,0 9.67,-1.19 13.96,-3.58c4.3,-2.51 7.76,-6.03 10.38,-10.56c2.74,-4.65 4.12,-10.2 4.12,-16.65s-1.37,-11.93 -4.12,-16.47c-2.62,-4.65 -6.09,-8.17 -10.38,-10.56c-4.3,-2.51 -8.95,-3.76 -13.96,-3.76s-9.73,1.25 -14.14,3.76c-4.3,2.39 -7.82,5.91 -10.56,10.56c-2.62,4.53 -3.94,10.02 -3.94,16.47s1.31,11.99 3.94,16.65c2.74,4.53 6.32,8.06 10.74,10.56c4.42,2.39 9.07,3.58 13.96,3.58z"/>
     <path stroke="#000" fill="#fff" id="svg_12" d="m252.55,129.13l0,-128.16l23.27,0l58,94.15l1.07,0l-1.07,-24.7l0,-69.45l19.51,0l0,128.16l-20.41,0l-60.86,-98.99l-1.07,0l1.07,24.7l0,74.29l-19.51,0z"/>
     <path stroke="#000" fill="#fff" id="svg_13" d="m87.27,1.14c-48.2,0 -87.27,38.74 -87.27,86.55l0,41.44l16.09,0l0,-4.13c0,-19.39 15.84,-35.11 35.39,-35.11s35.39,15.72 35.39,35.11l0,4.13l16.09,0l0,-4.13c0,-28.2 -23.05,-51.05 -51.48,-51.05c-11.07,0 -21.32,3.46 -29.72,9.37c8.79,-17.32 26.88,-29.21 47.77,-29.21c29.51,0 53.44,23.74 53.44,53l0,22.02l16.09,0l0,-22.02c0,-38.08 -31.13,-68.96 -69.53,-68.96c-17.27,0 -33.06,6.24 -45.22,16.58c11.94,-22.39 35.65,-37.64 62.97,-37.64c39.32,0 71.19,31.61 71.19,70.6l0,41.44l16.09,0l0,-41.44c-0.01,-47.81 -39.08,-86.55 -87.29,-86.55z"/>
    </g>
   </g>
  </g>
 </g>
</svg>